# xmcd CD database file
#
# Track frame offsets:
#	150
#	8465
#	32955
#	40920
#	66465
#	87147
#	94437
#	109732
#	142730
#	154585
#	181320
#	191952
#	215382
#	248622
#
# Disc length: 3461 seconds
#
# Revision: 0
# Processed by: cddbd v1.4PL0 Copyright (c) Steve Scherf et al.
# Submitted via: CDex 1.50
#
DISCID=b80d830e
DTITLE=Sarah Vaughan - Live In Japan [CD1]
DYEAR=1900
DGENRE=Jazz
TTITLE0=A Foggy Day
TTITLE1=Poor Butterfly
TTITLE2=The Lamp Is Low
TTITLE3='Round Midnight
TTITLE4=Willow Weep For Me
TTITLE5=There Will Never Be Another You
TTITLE6=Misty
TTITLE7=Wave
TTITLE8=Like Someone In Love
TTITLE9=My Funny Valentine
TTITLE10=All Of Me
TTITLE11=(Where Do I Begin) Love Story
TTITLE12=Over The Rainbow
TTITLE13=I Could Write A Book
EXTD=
EXTT0=
EXTT1=
EXTT2=
EXTT3=
EXTT4=
EXTT5=
EXTT6=
EXTT7=
EXTT8=
EXTT9=
EXTT10=
EXTT11=
EXTT12=
EXTT13=
PLAYORDER=
